<?xml version="1.0" encoding="UTF-8"?>
<!DOCTYPE svg PUBLIC "-//W3C//DTD SVG 1.1//EN" "http://www.w3.org/Graphics/SVG/1.1/DTD/svg11.dtd">
<!-- Creator: CorelDRAW -->
<svg xmlns="http://www.w3.org/2000/svg" xml:space="preserve" width="297mm" height="210mm" version="1.1" style="shape-rendering:geometricPrecision; text-rendering:geometricPrecision; image-rendering:optimizeQuality; fill-rule:evenodd; clip-rule:evenodd"
viewBox="0 0 29700 21000"
 xmlns:xlink="http://www.w3.org/1999/xlink"
 xmlns:xodm="http://www.corel.com/coreldraw/odm/2003">
 <defs>
  <style type="text/css">
   <![CDATA[
    .fil0 {fill:#CE1126}
    .fil1 {fill:#434242;fill-rule:nonzero}
   ]]>
  </style>
 </defs>
 <g id="Warstwa_x0020_1">
  <metadata id="CorelCorpID_0Corel-Layer"/>
  <g id="_2153114278928">
   <path class="fil0" d="M6482.99 12862.64c0,-26.03 133.47,-193.99 157.06,-219.28 16.39,-17.58 25.94,-33.39 41.29,-52.03 13.4,-16.24 32.71,-31.98 46.14,-47.58 30.64,-35.67 60.94,-61.42 92.12,-95.3 38.88,-42.17 358.04,-365.39 385.87,-365.39 40.87,0 91.28,55.2 116.39,77.08 34.73,30.27 70.65,56.43 104.85,87.61 66.71,60.85 135.83,121.36 198.84,185.11 67.23,67.99 119.56,127.43 180.04,202.23 25.85,31.95 148.01,195.08 148.01,231.46l0 3.9c0,9.13 -7.11,15.57 -17.12,15.57l-1432.1 0c-9.98,0 -21.39,-10.38 -21.39,-19.47l0 -3.91zm-330.61 -5276.14l-2402.43 0 2.74 3057.69c1.23,1369.11 1031.19,2500.14 2324.23,2597.7l1.06 -104.36c8.49,-546.02 922.28,-1193.53 922.28,-1225.97 0,-24.07 -147.36,-132.4 -174.16,-153 -59.87,-46.08 -124.9,-97.65 -179.58,-148.09 -55.69,-51.39 -119.53,-97.32 -177.42,-150.08 -534.63,-487.49 -910.49,-1064.26 -395.66,-1765.94 77.32,-105.43 179.03,-197.89 275.98,-286.26 101.43,-92.5 210.71,-162.83 318.46,-247.55 37.2,-29.29 328.11,-220.32 328.11,-238.72l0 -7.81c0,-12.51 -79.47,-41.35 -253.28,-201.71 -304.34,-280.71 -624.99,-691.3 -590.33,-1125.9zm220.72 5666.89l1689.89 -0.03c-3.44,-79.43 -23.55,-175.22 -36.74,-191.94 -9.24,-5.64 -14.22,-11.69 -29.9,-11.69l-1560.39 0c-12.05,0 -16.48,8.94 -21.36,15.6 -19.47,14.83 -39.42,109.36 -41.5,188.06zm1641.68 -5666.89l-1573.17 0c-9.1,71.16 -1.38,211.04 41.38,212.84l1474.88 0c12.05,0 16.48,-8.94 21.36,-15.59 23.4,-20.35 37.32,-134.36 35.55,-197.25zm-317.7 3755.98c0,15.19 -205.83,185.53 -233.41,204.24 -38.73,26.3 -220.36,189.44 -249.65,189.44l-4.27 0c-19.32,0 -483.07,-381.26 -483.07,-397.59 0,-9.06 11.39,-19.47 21.37,-19.47l931.94 0c10.01,0 17.09,6.47 17.09,15.6l0 7.78zm423.31 -424.81c-41.65,57.37 -85.38,110.13 -133.72,162.65 -19.25,20.93 -52.76,53.55 -74.67,72.26 -22.3,19.04 -96.24,6.71 -137.96,6.71 -413.24,0 -826.48,0 -1239.76,0 -43.48,-26.58 -207.38,-230.76 -240.79,-283.27 -46.02,-72.33 -148.22,-258.93 -148.22,-363.78l0 -23.37c0,-9.1 11.41,-19.5 21.39,-19.5l2111.8 0c15.78,0 25.67,31.06 25.67,42.87l0 7.78c0,40.8 -57.49,185.41 -76.02,215.23 -38.51,61.91 -65.18,123.86 -107.72,182.42zm-1975.12 -623.71c0,-104.79 84.99,-322.79 131.74,-386.63 38.29,-52.3 63.13,-108.42 108.75,-154.16 17.83,-17.89 111.39,-133.54 127.16,-133.54l1415.01 0c49.8,0 200.76,247.63 229.48,297.5 30.61,53.18 63.59,117.75 86.39,174.58 12.21,30.45 19.83,64.9 32.99,94.65 2.22,5.07 23.07,101.07 23.07,103.7 0,9.09 -11.42,19.5 -21.4,19.5l-2111.8 0c-12.08,0 -16.51,-8.95 -21.39,-15.6zm577.14 -853.64c0,-21.94 478.82,-362.5 495.88,-362.5l12.82 0c32.28,0 495.91,339.98 495.91,354.72l0 11.69c0,9.12 -7.11,15.59 -17.12,15.59l-966.13 0c-9.97,0 -21.36,-10.41 -21.36,-19.5zm-205.21 -1461.7c0,-12.6 15.53,-19.47 29.93,-19.47l1367.99 0c9.85,0 12.81,2.72 12.81,11.69 0,201.28 -574.42,768.69 -701.09,768.69 -104.89,0 -709.64,-588.92 -709.64,-760.91z"/>
   <path class="fil1" d="M12537.27 9584.96l-47.58 0 -260.19 -756.78 -244.85 756.78 -47.58 0 -346.92 -1112.89 156.56 0 220.28 765.98 241.78 -765.98 52.18 0 237.17 764.45 224.89 -764.45 156.58 0 -342.32 1112.89zm731.72 121.02c-18.44,50.91 -57.07,93.39 -116.42,127.42 -59.09,34.01 -124.84,50.9 -197.77,50.9l0 -127.41c59.36,0 110.28,-13.8 152.74,-41.71 42.47,-27.61 63.71,-61.39 63.71,-101.55 0,-43.76 -7.67,-87.24 -23.28,-129.97 -15.35,-42.73 -35.56,-95.43 -59.87,-158.37l-217.71 -558.5 145.81 0 235.63 620.68 211.09 -620.68 145.81 0 -339.74 939.19zm960.15 -136.36l0 -59.11c-49.37,48.61 -121.51,72.93 -215.93,72.93 -100.54,0 -181.9,-36.08 -244.58,-107.97 -62.43,-71.9 -93.64,-167.84 -93.64,-287.83 0,-120.49 36.08,-223.34 107.97,-308.54 71.9,-85.19 157.86,-127.66 257.12,-127.66 83.14,0 146.08,19.45 189.06,58.59l0 -371.74 142.76 0 0 1131.33 -142.76 0zm0 -617.61c-35.82,-53.97 -85.19,-80.84 -147.62,-80.84 -76.23,0 -138.14,28.39 -185.23,85.46 -47.33,56.8 -70.86,129.19 -70.86,217.19 0,193.17 88,289.87 263.78,289.87 22.25,0 49.37,-7.15 80.84,-21.22 31.46,-14.33 51.17,-29.43 59.09,-45.54l0 -444.92zm499.15 490.19l445.17 0 0 127.42 -669.28 0 0 -37.62 457.45 -637.8 -449.77 0 0 -127.41 657 0 0 40.42 -440.57 634.99zm721.47 -979.35c24.31,0 45.29,8.7 62.67,25.84 17.14,17.39 25.85,38.12 25.85,61.91 0,24.57 -8.71,45.54 -25.85,62.95 -17.38,17.14 -38.36,25.82 -62.67,25.82 -24.05,0 -44.78,-8.68 -62.16,-25.82 -17.16,-17.41 -25.85,-38.38 -25.85,-62.95 0,-24.31 8.44,-45.29 25.58,-62.18 16.89,-17.13 37.86,-25.57 62.43,-25.57zm-78.81 1106.77l0 -683.09 -110.52 0 0 -119.74 253.28 0 0 802.83 -142.76 0zm822.8 -92.11c-56.8,71.65 -144.04,107.45 -261.22,107.45 -62.93,0 -117.44,-23.01 -163.47,-68.82 -46.32,-45.79 -69.34,-102.58 -69.34,-170.89 0,-81.61 35.56,-150.43 106.69,-206.98 71.11,-56.29 161.69,-84.42 271.95,-84.42 29.94,0 63.95,6.64 101.82,19.95 0,-129.98 -57.81,-194.96 -173.72,-194.96 -89.03,0 -157.34,24.06 -205.43,72.16l-59.87 -119.74c27.12,-22.01 64.47,-40.67 112.06,-56.29 47.85,-15.61 93.39,-23.53 136.87,-23.53 116.42,0 201.1,26.61 253.8,79.57 52.71,52.96 79.05,137.13 79.05,252.77l0 288.07c0,70.35 20.99,117.44 62.94,140.97l0 70.62c-58.07,0 -101.57,-8.19 -130.22,-24.57 -28.91,-16.37 -49.37,-43.49 -61.91,-81.36zm-13.57 -302.41c-44.77,-10.23 -76.23,-15.34 -94.15,-15.34 -71.63,0 -130.22,18.68 -175.51,55.77 -45.27,37.1 -68.04,81.11 -68.04,131.76 0,83.65 49.13,125.62 147.11,125.62 71.88,0 135.34,-34.28 190.59,-102.85l0 -194.96zm382.76 167.84l0 -286.28 -79.84 55.52 0 -107.45 79.84 -54.51 0 -511.93 142.76 0 0 416c12.02,-7.94 46.81,-30.46 104.38,-67.54l0 98.23 -104.38 72.66 0 361.25c0,42.98 12.27,76.76 36.83,101.57 24.81,24.82 57.05,37.11 96.71,37.11l0 127.39c-184.21,0 -276.3,-80.58 -276.3,-242.02z"/>
   <path class="fil1" d="M11991.86 11271.33l-313.67 0 0 -1098.58c133.81,-6.39 230,-9.71 289.11,-9.71 108.73,0 192.89,23.26 252.52,70.1 59.6,46.81 89.28,113.58 89.28,200.57 0,50.92 -18.93,97.47 -56.8,139.44 -38.11,41.95 -79.82,68.3 -125.87,78.78 86.73,20.99 149.67,55.79 189.33,104.13 39.64,48.61 59.35,114.63 59.35,198.03 0,96.44 -35.3,173.45 -106.17,231.03 -70.61,57.56 -163.24,86.21 -277.08,86.21zm-163.22 -979.35l0 316.21c31.45,3.07 70.6,4.61 116.92,4.61 141.98,0 213.11,-57.82 213.11,-173.46 0,-101.82 -65.24,-152.74 -195.73,-152.74 -50.13,0 -94.91,1.79 -134.3,5.38zm0 432.11l0 420.09c51.42,4.85 90.81,7.41 118.2,7.41 93.88,0 162.19,-17.64 205.43,-52.94 43.23,-35.31 64.72,-91.6 64.72,-168.87 0,-71.63 -20.46,-124.34 -61.64,-158.36 -41.19,-34.02 -110.01,-51.16 -206.22,-51.16l-120.49 3.83zm853.98 -559.53c24.32,0 45.29,8.71 62.68,25.84 17.14,17.39 25.84,38.12 25.84,61.92 0,24.56 -8.7,45.54 -25.84,62.94 -17.39,17.14 -38.36,25.83 -62.68,25.83 -24.05,0 -44.77,-8.69 -62.16,-25.83 -17.16,-17.4 -25.84,-38.38 -25.84,-62.94 0,-24.32 8.43,-45.29 25.57,-62.18 16.89,-17.14 37.87,-25.58 62.43,-25.58zm-78.8 1106.77l0 -683.09 -110.53 0 0 -119.74 253.29 0 0 802.83 -142.76 0zm318.02 -403.2c0,-124.09 33.25,-224.37 100.03,-300.62 66.78,-76.24 154.53,-114.36 263.51,-114.36 114.88,0 203.91,36.59 267.35,110.01 63.46,73.18 95.18,174.75 95.18,304.97 0,129.46 -32.48,231.53 -97.47,306.5 -64.99,74.7 -153.26,112.05 -265.06,112.05 -114.61,0 -203.64,-37.87 -267.6,-113.33 -63.97,-75.49 -95.94,-177.31 -95.94,-305.22zm150.43 0c0,201.33 71.11,301.9 213.11,301.9 66.02,0 117.95,-26.88 155.57,-80.85 37.59,-53.99 56.53,-127.66 56.53,-221.05 0,-198.79 -70.62,-298.32 -212.1,-298.32 -64.99,0 -116.65,26.35 -155.3,79.31 -38.63,52.97 -57.81,125.87 -57.81,219.01zm776.23 -287.58l-93.65 0 0 -112.05 93.65 0 0 -167.84 142.76 -54.74 0 222.58 221.03 0 0 112.05 -221.03 0 0 399.38c0,67.55 11.51,115.64 34.28,144.29 22.76,28.4 59.6,42.73 110.25,42.73 36.59,0 74.72,-9.22 113.87,-27.63l20.97 124.85c-59.11,15.1 -124.09,22.51 -194.96,22.51 -63.7,0 -117.43,-23.54 -161.42,-70.87 -43.76,-47.33 -65.75,-106.93 -65.75,-179.08l0 -456.18zm1234.41 303.96l-578.19 0c0,93.88 25.57,166.02 77.01,216.43 45.53,44.01 103.86,66.01 175.24,66.01 81.36,0 149.15,-24.05 203.66,-72.14l59.85 102.83c-21.98,22.01 -55.76,41.21 -101.05,57.32 -57.05,21.24 -120.49,31.72 -190.34,31.72 -101.06,0 -186.77,-34.28 -257.12,-102.85 -78.54,-75.47 -117.69,-177.04 -117.69,-304.44 0,-132.53 40.16,-238.97 120.76,-319.03 71.89,-71.38 157.09,-107.21 255.59,-107.21 114.36,0 204.16,32.24 269.15,96.96 62.92,62.18 94.39,144.55 94.39,247.16 0,31.72 -3.83,60.63 -11.26,87.24zm-345.39 -311.63c-63.69,0 -116.92,20.73 -159.9,61.91 -41.18,39.41 -64.2,88.27 -69.83,146.86l445.15 0c0,-58.07 -17.9,-106.43 -53.97,-145.31 -39.66,-42.22 -93.39,-63.46 -161.45,-63.46zm1117.02 -39.91l-71.13 99.78c-14.58,-14.33 -40.43,-27.88 -77.53,-40.67 -37.1,-12.81 -73.42,-19.2 -109.24,-19.2 -78.02,0 -140.2,27.12 -185.99,81.63 -45.81,54.22 -68.82,128.67 -68.82,223.34 0,94.14 23.28,165.79 69.58,215.17 46.57,49.37 111.04,73.93 193.42,73.93 63.95,0 128.44,-24.56 193.41,-73.69l56.3 119.75c-76.51,49.1 -171.16,73.67 -284.24,73.67 -109.51,0 -200.07,-36.84 -271.72,-110.26 -71.38,-73.42 -107.19,-173.2 -107.19,-298.57 0,-128.18 37.35,-230.77 112.06,-308.29 74.96,-77.53 177.3,-116.41 307.01,-116.41 41.96,0 87.24,8.71 136.11,26.09 48.86,17.41 84.68,35.31 107.97,53.73zm643.43 738.36l0 -504.77c0,-60.12 -14.58,-107.45 -44.01,-142 -29.41,-34.54 -70.87,-51.68 -124.34,-51.68 -34.28,0 -68.83,10.25 -103.62,30.46 -34.52,20.21 -61.13,43.74 -79.57,70.86l0 597.13 -142.76 0 0 -1131.33 142.76 0 0 416.5c18.94,-29.41 49.65,-53.97 91.86,-73.67 41.95,-19.69 85.7,-29.68 130.47,-29.68 84.95,0 151.46,27.89 199.83,83.92 48.09,56.02 72.14,132.52 72.14,229.49l0 504.77 -142.76 0zm838.65 0l0 -467.42c0,-85.45 -12.78,-145.32 -38.62,-179.6 -25.6,-34.29 -68.83,-51.43 -129.21,-51.43 -32.49,0 -66.52,9.73 -102.07,29.18 -35.31,19.7 -62.7,43.48 -81.63,72.14l0 597.13 -142.76 0 0 -802.83 97.49 0 45.02 103.37c47.07,-79.06 123.83,-118.72 230.52,-118.72 176.02,0 264.02,106.94 264.02,321.08l0 497.1 -142.76 0zm292.18 -403.2c0,-124.09 33.25,-224.37 100.03,-300.62 66.78,-76.24 154.54,-114.36 263.52,-114.36 114.87,0 203.91,36.59 267.35,110.01 63.45,73.18 95.18,174.75 95.18,304.97 0,129.46 -32.49,231.53 -97.47,306.5 -64.99,74.7 -153.26,112.05 -265.06,112.05 -114.61,0 -203.65,-37.87 -267.6,-113.33 -63.98,-75.49 -95.95,-177.31 -95.95,-305.22zm150.44 0c0,201.33 71.11,301.9 213.11,301.9 66.01,0 117.94,-26.88 155.56,-80.85 37.6,-53.99 56.53,-127.66 56.53,-221.05 0,-198.79 -70.61,-298.32 -212.09,-298.32 -64.99,0 -116.66,26.35 -155.3,79.31 -38.63,52.97 -57.81,125.87 -57.81,219.01zm736.3 176.52l0 -904.65 142.76 0 0 880.61c0,42.98 12.29,76.76 36.85,101.57 24.81,24.81 57.05,37.1 96.71,37.1l0 127.4c-184.22,0 -276.32,-80.58 -276.32,-242.03zm389.91 -176.52c0,-124.09 33.25,-224.37 100.03,-300.62 66.78,-76.24 154.54,-114.36 263.52,-114.36 114.87,0 203.9,36.59 267.35,110.01 63.45,73.18 95.17,174.75 95.17,304.97 0,129.46 -32.48,231.53 -97.47,306.5 -64.98,74.7 -153.25,112.05 -265.05,112.05 -114.61,0 -203.65,-37.87 -267.6,-113.33 -63.98,-75.49 -95.95,-177.31 -95.95,-305.22zm150.44 0c0,201.33 71.11,301.9 213.11,301.9 66.01,0 117.94,-26.88 155.56,-80.85 37.6,-53.99 56.53,-127.66 56.53,-221.05 0,-198.79 -70.61,-298.32 -212.09,-298.32 -64.99,0 -116.66,26.35 -155.3,79.31 -38.63,52.97 -57.81,125.87 -57.81,219.01zm696.39 622.97l77.27 -113.84c83.14,55.25 159.64,82.88 229.74,82.88 64.74,0 115.64,-11.01 152.74,-33.26 37.35,-22.26 56.03,-49.89 56.03,-82.89 0,-64.72 -47.08,-97.22 -140.96,-97.22 -16.13,0 -45.04,4.1 -86.99,12.29 -42.22,8.19 -74.97,12.27 -98.25,12.27 -114.1,0 -171.16,-42.98 -171.16,-129.21 0,-26.34 13.3,-50.38 39.92,-71.87 26.61,-21.49 59.61,-37.11 99,-46.57 -113.08,-52.96 -169.61,-145.07 -169.61,-276.3 0,-83.92 29.16,-154.02 87.75,-210.06 58.58,-56.03 130.74,-84.17 216.7,-84.17 79.05,0 140.7,16.38 185.22,48.86l71.38 -85.71 92.87 87.76 -85.44 64.73c36.58,47.34 54.74,109.5 54.74,185.99 0,81.12 -25.33,148.91 -75.74,204.16 -50.38,55.02 -116.65,86.48 -198.77,94.42l-117.7 12.27c-14.07,1.54 -32.73,6.91 -56.29,16.13 -23.26,9.2 -35.04,21.24 -35.04,36.07 0,20.46 24.57,30.7 73.43,30.7 21.49,0 55,-3.83 100.54,-11.52 45.54,-7.67 79.32,-11.51 101.32,-11.51 79.05,0 140.7,18.93 184.96,56.55 44.28,37.6 66.27,90.05 66.27,156.83 0,73.93 -33,133.54 -99.27,179.08 -66.26,45.28 -150.16,68.05 -251.74,68.05 -51.93,0 -106.68,-9.2 -164.25,-27.63 -57.31,-18.42 -103.61,-40.92 -138.67,-67.28zm301.89 -922.82c-49.62,0 -90.04,17.4 -121.27,52.45 -31.47,35.06 -47.06,77.77 -47.06,127.66 0,56.03 15.09,102.6 45.54,139.17 30.19,36.85 71.11,55.27 122.79,55.27 50.66,0 90.32,-17.9 118.96,-53.72 28.4,-35.83 42.74,-82.64 42.74,-140.72 0,-49.89 -15.35,-92.6 -46.31,-127.66 -30.7,-35.05 -69.33,-52.45 -115.39,-52.45zm644.22 -403.72c24.31,0 45.28,8.71 62.67,25.84 17.14,17.39 25.84,38.12 25.84,61.92 0,24.56 -8.7,45.54 -25.84,62.94 -17.39,17.14 -38.36,25.83 -62.67,25.83 -24.05,0 -44.78,-8.69 -62.17,-25.83 -17.15,-17.4 -25.84,-38.38 -25.84,-62.94 0,-24.32 8.44,-45.29 25.58,-62.18 16.89,-17.14 37.86,-25.58 62.43,-25.58zm-78.81 1106.77l0 -683.09 -110.52 0 0 -119.74 253.28 0 0 802.83 -142.76 0zm516.55 -1106.77c24.31,0 45.29,8.71 62.68,25.84 17.14,17.39 25.84,38.12 25.84,61.92 0,24.56 -8.7,45.54 -25.84,62.94 -17.39,17.14 -38.37,25.83 -62.68,25.83 -24.05,0 -44.77,-8.69 -62.16,-25.83 -17.16,-17.4 -25.84,-38.38 -25.84,-62.94 0,-24.32 8.43,-45.29 25.57,-62.18 16.89,-17.14 37.87,-25.58 62.43,-25.58zm-78.8 1106.77l0 -683.09 -110.53 0 0 -119.74 253.29 0 0 802.83 -142.76 0z"/>
   <path class="fil1" d="M11811.77 11864.06c24.31,0 45.29,8.7 62.67,25.84 17.14,17.39 25.85,38.11 25.85,61.91 0,24.56 -8.71,45.54 -25.85,62.94 -17.38,17.14 -38.36,25.83 -62.67,25.83 -24.05,0 -44.78,-8.69 -62.17,-25.83 -17.15,-17.4 -25.84,-38.38 -25.84,-62.94 0,-24.31 8.44,-45.29 25.58,-62.18 16.89,-17.14 37.86,-25.57 62.43,-25.57zm-78.81 1106.76l0 -683.09 -110.52 0 0 -119.74 253.28 0 0 802.83 -142.76 0zm1554.23 15.35l-567.96 -802.83 0 787.48 -142.76 0 0 -1097.55 59.87 0 552.62 759.84 0 -759.84 142.76 0 0 1112.9 -44.53 0zm710.75 -107.45c-56.8,71.64 -144.04,107.45 -261.23,107.45 -62.92,0 -117.43,-23.02 -163.47,-68.82 -46.32,-45.79 -69.33,-102.59 -69.33,-170.89 0,-81.61 35.55,-150.44 106.68,-206.99 71.12,-56.28 161.7,-84.41 271.96,-84.41 29.94,0 63.95,6.64 101.82,19.94 0,-129.97 -57.81,-194.96 -173.72,-194.96 -89.03,0 -157.34,24.07 -205.44,72.17l-59.87 -119.75c27.12,-22 64.47,-40.67 112.07,-56.28 47.85,-15.61 93.39,-23.53 136.86,-23.53 116.43,0 201.11,26.6 253.8,79.57 52.72,52.96 79.06,137.12 79.06,252.76l0 288.08c0,70.35 20.99,117.43 62.94,140.97l0 70.61c-58.08,0 -101.57,-8.18 -130.22,-24.56 -28.92,-16.38 -49.38,-43.5 -61.91,-81.36zm-13.57 -302.41c-44.78,-10.23 -76.23,-15.35 -94.15,-15.35 -71.63,0 -130.22,18.69 -175.51,55.77 -45.27,37.1 -68.04,81.11 -68.04,131.77 0,83.65 49.12,125.62 147.11,125.62 71.87,0 135.33,-34.28 190.59,-102.85l0 -194.96zm502.48 -408.32l0 512.45c0,124.09 53.72,186.01 160.93,186.01 47.06,0 89.8,-13.57 128.94,-40.43 38.9,-27.12 64.47,-58.34 77.01,-93.9l0 -564.13 142.76 0 0 802.83 -142.76 0 0 -111.03c-15.86,31.47 -48.1,60.38 -96.19,86.74 -48.36,26.34 -95.43,39.64 -141.48,39.64 -87.76,0 -155.3,-25.33 -201.87,-75.73 -46.82,-50.39 -70.1,-122.28 -70.1,-215.15l0 -527.3 142.76 0zm1222.43 802.83l-251.49 -401.92 -124.61 128.43 0 273.49 -142.76 0 0 -1131.33 142.76 0 0 701.26 308.55 -372.76 165.78 0 -257.37 304.97 314.17 497.86 -155.03 0zm665.7 -403.2c0,-124.09 33.25,-224.37 100.03,-300.61 66.78,-76.25 154.53,-114.36 263.51,-114.36 114.87,0 203.91,36.58 267.35,110.01 63.46,73.17 95.18,174.74 95.18,304.96 0,129.46 -32.49,231.53 -97.47,306.5 -64.99,74.7 -153.26,112.05 -265.06,112.05 -114.61,0 -203.64,-37.87 -267.6,-113.33 -63.97,-75.48 -95.94,-177.3 -95.94,-305.22zm150.43 0c0,201.34 71.11,301.9 213.11,301.9 66.02,0 117.95,-26.87 155.56,-80.85 37.6,-53.99 56.54,-127.66 56.54,-221.05 0,-198.79 -70.62,-298.32 -212.1,-298.32 -64.99,0 -116.65,26.36 -155.3,79.32 -38.63,52.96 -57.81,125.87 -57.81,219zm1162.02 403.2l0 -37.35 471.26 -925.13 -471.26 0 0 -135.07 676.96 0 0 37.35 -472.8 925.12 489.68 0 0 135.08 -693.84 0zm1610.78 15.35l-36.85 0 -235.63 -546.48 -234.09 546.48 -36.85 0 -287.05 -819.7 151.98 0 171.16 526.51 214.14 -526.51 36.83 0 220.29 526.51 184.96 -526.51 139.69 0 -288.58 819.7zm548.77 -1122.11c24.31,0 45.29,8.7 62.68,25.84 17.13,17.39 25.84,38.11 25.84,61.91 0,24.56 -8.71,45.54 -25.84,62.94 -17.39,17.14 -38.37,25.83 -62.68,25.83 -24.05,0 -44.78,-8.69 -62.16,-25.83 -17.16,-17.4 -25.85,-38.38 -25.85,-62.94 0,-24.31 8.44,-45.29 25.58,-62.18 16.89,-17.14 37.87,-25.57 62.43,-25.57zm-78.81 1106.76l0 -683.09 -110.52 0 0 -119.74 253.28 0 0 802.83 -142.76 0zm1046.65 -386.82l-578.19 0c0,93.88 25.57,166.03 77.01,216.43 45.54,44.01 103.86,66.02 175.24,66.02 81.36,0 149.15,-24.05 203.66,-72.15l59.86 102.84c-21.99,22 -55.77,41.2 -101.06,57.31 -57.05,21.24 -120.49,31.72 -190.34,31.72 -101.06,0 -186.77,-34.28 -257.12,-102.85 -78.54,-75.47 -117.68,-177.04 -117.68,-304.44 0,-132.53 40.15,-238.96 120.75,-319.03 71.89,-71.38 157.09,-107.2 255.59,-107.2 114.36,0 204.16,32.23 269.15,96.95 62.92,62.18 94.39,144.56 94.39,247.16 0,31.72 -3.83,60.63 -11.26,87.24zm-345.39 -311.63c-63.69,0 -116.91,20.73 -159.9,61.92 -41.18,39.41 -64.2,88.27 -69.83,146.86l445.15 0c0,-58.08 -17.9,-106.44 -53.97,-145.32 -39.66,-42.22 -93.39,-63.46 -161.45,-63.46zm942.52 32.24c-30.95,-21.49 -62.16,-32.24 -93.88,-32.24 -50.4,0 -94.66,23.29 -132.28,69.61 -37.87,46.55 -56.8,102.33 -56.8,167.82l0 461.02 -142.76 0 0 -802.83 142.76 0 0 127.42c51.95,-95.18 129.46,-142.76 232.06,-142.76 25.33,0 62.16,4.6 110.26,13.55l-59.36 138.41zm313.65 538.8l445.17 0 0 127.41 -669.27 0 0 -37.61 457.44 -637.8 -449.77 0 0 -127.42 657 0 0 40.43 -440.57 634.99zm1123.15 380.7c-48.1,17.39 -92.62,26.09 -133.56,26.09 -58.58,0 -107.19,-17.14 -146.08,-51.68 -38.63,-34.53 -58.08,-79.06 -58.08,-134.06 0,-23.02 5.38,-53.21 16.38,-90.56 -85.96,-21.49 -153.76,-67.03 -203.91,-136.88 -49.89,-69.84 -74.95,-155.8 -74.95,-258.4 0,-126.9 36.83,-229.75 110.52,-308.29 73.67,-78.54 162.46,-117.68 265.82,-117.68 112.3,0 201.09,31.2 266.08,93.88 64.98,62.7 97.47,146.1 97.47,250.23 0,23.02 -3.84,52.18 -11.26,87.24l-578.2 0c0,89.28 23.02,158.87 69.07,208.24 45.81,49.38 107.2,74.21 183.45,74.21 81.61,0 149.67,-24.05 204.16,-72.15l59.09 115.13c-60.89,45.53 -138.14,70.61 -231.53,75.21 -31.99,18.42 -47.85,47.07 -47.85,86.21 0,46.82 27.64,70.37 83.16,70.37 26.85,0 53.72,-7.67 80.08,-23.28l50.14 106.17zm-1.55 -742.96c0,-60.64 -19.43,-110.53 -58.57,-149.67 -38.9,-39.39 -91.34,-59.11 -156.84,-59.11 -62.68,0 -115.13,19.96 -157.59,59.87 -42.74,39.66 -66.52,89.29 -72.15,148.91l445.15 0zm341.31 -201.11l-93.65 0 0 -112.05 93.65 0 0 -167.83 142.76 -54.74 0 222.57 221.03 0 0 112.05 -221.03 0 0 399.39c0,67.54 11.51,115.64 34.28,144.28 22.77,28.4 59.6,42.74 110.25,42.74 36.59,0 74.72,-9.22 113.87,-27.64l20.97 124.86c-59.1,15.09 -124.09,22.5 -194.96,22.5 -63.7,0 -117.43,-23.53 -161.42,-70.86 -43.76,-47.34 -65.75,-106.94 -65.75,-179.08l0 -456.19zm1010.56 598.68c-56.8,71.64 -144.04,107.45 -261.22,107.45 -62.93,0 -117.44,-23.02 -163.47,-68.82 -46.32,-45.79 -69.34,-102.59 -69.34,-170.89 0,-81.61 35.56,-150.44 106.69,-206.99 71.11,-56.28 161.69,-84.41 271.95,-84.41 29.94,0 63.95,6.64 101.82,19.94 0,-129.97 -57.81,-194.96 -173.72,-194.96 -89.03,0 -157.34,24.07 -205.43,72.17l-59.87 -119.75c27.12,-22 64.47,-40.67 112.06,-56.28 47.85,-15.61 93.39,-23.53 136.87,-23.53 116.42,0 201.1,26.6 253.8,79.57 52.71,52.96 79.05,137.12 79.05,252.76l0 288.08c0,70.35 20.99,117.43 62.94,140.97l0 70.61c-58.07,0 -101.57,-8.18 -130.22,-24.56 -28.91,-16.38 -49.37,-43.5 -61.91,-81.36zm-13.57 -302.41c-44.77,-10.23 -76.23,-15.35 -94.15,-15.35 -71.63,0 -130.22,18.69 -175.51,55.77 -45.27,37.1 -68.04,81.11 -68.04,131.77 0,83.65 49.13,125.62 147.11,125.62 71.88,0 135.34,-34.28 190.59,-102.85l0 -194.96zm978.36 -343.85l-71.13 99.78c-14.58,-14.33 -40.42,-27.88 -77.53,-40.67 -37.1,-12.8 -73.42,-19.2 -109.24,-19.2 -78.02,0 -140.2,27.12 -185.99,81.63 -45.81,54.22 -68.82,128.68 -68.82,223.34 0,94.15 23.28,165.79 69.58,215.17 46.57,49.37 111.04,73.94 193.42,73.94 63.95,0 128.44,-24.57 193.41,-73.69l56.3 119.74c-76.51,49.11 -171.16,73.67 -284.24,73.67 -109.51,0 -200.07,-36.84 -271.72,-110.26 -71.38,-73.42 -107.19,-173.2 -107.19,-298.57 0,-128.18 37.36,-230.76 112.06,-308.29 74.96,-77.52 177.3,-116.4 307.01,-116.4 41.96,0 87.24,8.7 136.11,26.09 48.86,17.4 84.69,35.31 107.97,53.72zm643.43 738.36l0 -504.77c0,-60.12 -14.58,-107.45 -44.01,-141.99 -29.41,-34.55 -70.87,-51.69 -124.34,-51.69 -34.28,0 -68.82,10.25 -103.62,30.46 -34.52,20.21 -61.13,43.75 -79.57,70.87l0 597.12 -142.75 0 0 -1131.33 142.75 0 0 416.51c18.94,-29.41 49.65,-53.98 91.86,-73.67 41.95,-19.7 85.7,-29.68 130.47,-29.68 84.95,0 151.46,27.88 199.83,83.92 48.09,56.01 72.14,132.51 72.14,229.48l0 504.77 -142.76 0z"/>
  </g>
 </g>
</svg>
